<svg width="729" height="545" viewBox="0 0 729 545" fill="none" xmlns="http://www.w3.org/2000/svg">
<path d="M247.739 544.614C282.37 544.614 310.445 541.993 310.445 538.759C310.445 535.526 282.37 532.905 247.739 532.905C213.108 532.905 185.034 535.526 185.034 538.759C185.034 541.993 213.108 544.614 247.739 544.614Z" fill="#C8DBFB"/>
<path d="M569.863 544.614C604.494 544.614 632.568 541.993 632.568 538.759C632.568 535.526 604.494 532.905 569.863 532.905C535.232 532.905 507.158 535.526 507.158 538.759C507.158 541.993 535.232 544.614 569.863 544.614Z" fill="#C8DBFB"/>
<path d="M702.348 126.49C702.169 125.404 701.975 124.334 701.764 123.296" stroke="#C8DBFB" stroke-linecap="round" stroke-linejoin="round"/>
<path d="M700.222 117.02C689.044 78.9421 653.368 82.6233 621.131 82.6882C586.428 82.7531 49.2242 83.872 49.2242 83.872C-4.7688 83.9856 0.471499 161.892 42.7346 161.795C67.0379 161.746 76.2855 207.365 34.2658 207.446C9.05391 207.494 8.24272 239.442 25.1966 245.848" stroke="#C8DBFB" stroke-linecap="round" stroke-linejoin="round" stroke-dasharray="3.99 3.99"/>
<path d="M28.3115 246.675C29.3336 246.853 30.4206 246.95 31.5563 246.934" stroke="#C8DBFB" stroke-linecap="round" stroke-linejoin="round"/>
<path d="M38.1758 245.458C38.8896 249.691 36.0505 253.697 31.816 254.426C27.5816 255.14 23.5743 252.302 22.8442 248.069C22.1304 243.837 24.9696 239.831 29.204 239.101C33.4384 238.388 37.4619 241.242 38.1758 245.458Z" fill="#5193F4"/>
<path d="M709.989 129.993C709.226 134.21 705.17 137.015 700.952 136.237C696.734 135.475 693.927 131.42 694.706 127.204C695.468 122.987 699.524 120.182 703.743 120.96C707.961 121.722 710.751 125.761 709.989 129.993Z" fill="#5193F4"/>
<path d="M117.38 188.731C116.261 195.04 114.622 201.202 112.627 207.284C108.328 220.403 102.39 233.036 96.3868 245.507C93.2556 252.026 80.5523 267.108 73.7383 269.979C74.5333 252.967 74.5982 233.101 72.6189 215.927C70.7207 199.386 76.6748 186.85 70.1853 171.509C69.3579 169.547 68.498 167.584 67.6382 165.622C64.4096 158.324 61.2135 150.994 60.2076 143.129C58.9097 133.156 62.0085 121.787 70.6396 116.598C76.8533 112.868 84.949 113.063 91.5845 115.998C98.2201 118.933 103.542 124.301 107.581 130.318C118.889 147.118 120.933 168.817 117.38 188.731Z" fill="#5193F4"/>
<path d="M87.2044 133.642C99.9077 151.578 101.011 172.466 102.114 194.407C103.217 216.349 97.9446 238.582 87.0908 257.686" stroke="#0B43A4" stroke-miterlimit="10" stroke-linecap="round" stroke-linejoin="round"/>
<path d="M86.6691 464.437C77.7622 456.572 68.758 448.593 62.1711 438.7C56.4441 430.089 52.7451 420.31 47.7481 411.245C44.5196 405.391 40.6908 399.731 38.825 393.309C36.9593 386.887 37.3973 379.265 41.9724 374.384C46.7422 369.275 54.9353 368.497 61.4086 371.124C67.8819 373.751 72.8302 379.2 76.5941 385.071C81.6073 392.871 84.9656 401.742 86.3609 410.904C87.6263 419.208 87.3018 427.705 88.5998 436.008C89.8003 443.744 92.4124 451.171 95.6896 458.258C98.6585 464.68 106.203 476.146 108.117 482.73C102.779 485.373 90.4655 467.794 86.6691 464.437Z" fill="#00AD9F"/>
<path d="M55.5356 382.865C64.0045 386.563 67.3628 396.666 69.1312 405.731C71.143 416.045 70.6887 427.219 75.4261 436.609C84.3492 454.301 95.9493 474.427 104.58 480.443" stroke="#00AD9F" stroke-miterlimit="10" stroke-linecap="round" stroke-linejoin="round"/>
<path d="M42.8482 440.241C35.4663 437.322 25.586 436.122 20.8487 442.495C16.89 447.831 18.9342 455.404 21.6761 461.453C23.9961 466.561 26.9326 471.767 31.7998 474.54C35.1256 476.437 39.0356 477.005 42.8482 477.459C53.4748 478.724 64.1663 479.34 74.8741 479.308C87.2691 479.275 102.292 484.335 112.562 492.071C99.3883 467.615 67.7194 450.052 42.8482 440.241Z" fill="#0056EC"/>
<path d="M29.8853 456.134C39.2951 456.539 48.786 457.188 57.8065 459.864C67.0379 462.588 102.552 478.886 108.1 485.811" stroke="#0B43A4" stroke-miterlimit="10" stroke-linecap="round" stroke-linejoin="round"/>
<path d="M123.448 390.033C113.827 374.984 97.3765 364.475 79.6763 362.091C66.5999 360.34 53.1503 362.772 40.2361 360.064C26.673 357.226 14.4402 348.485 7.36663 336.566C0.293031 324.646 -1.55649 309.759 2.41835 296.477C5.45221 286.39 12.3798 276.822 22.4061 273.595C27.8736 271.844 33.8439 272.087 39.4249 273.417C44.5841 274.649 49.3702 276.806 53.783 279.612C63.8743 286.001 72.0349 295.829 78.1675 306.272C83.7323 315.759 97.4576 330.533 106.803 340.15C112.286 345.761 116.261 349.604 116.261 349.604C122.653 357.583 119.652 380.546 123.448 390.033Z" fill="#52D2BC"/>
<path d="M19.4697 302.769C50.8953 316.943 85.1601 335.528 107.452 361.832" stroke="#00AD9F" stroke-miterlimit="10" stroke-linecap="round" stroke-linejoin="round"/>
<path opacity="0.2" d="M110.469 358.296C110.469 358.296 63.6469 320.349 53.7666 279.628C63.8578 286.017 72.0184 295.845 78.151 306.288C83.7158 315.775 97.4412 330.549 106.786 340.166C107.889 345.258 109.106 351.242 110.469 358.296Z" fill="#5275A0"/>
<path opacity="0.2" d="M112.626 207.284C108.327 220.403 102.389 233.036 96.3863 245.507C93.2551 252.026 80.5519 267.108 73.7379 269.979C74.5328 252.967 74.5977 233.101 72.6184 215.927C70.7202 199.386 76.6744 186.85 70.1848 171.509C69.3574 169.547 68.4976 167.584 67.6377 165.622C68.238 165.817 68.822 166.027 69.3899 166.271C80.0652 170.844 84.9972 182.131 85.9057 193.094C86.6683 202.143 85.0297 211.208 83.8129 220.209C83.245 224.36 82.7908 228.609 83.6831 232.679C83.6993 232.728 83.7155 232.761 83.7155 232.809C84.835 237.658 91.9248 237.382 92.8333 232.469L95.6725 217.403C96.5161 212.895 97.4409 208.176 101.14 205.029C102.6 203.781 104.482 203.002 106.396 203.067C109.447 203.181 111.361 204.965 112.626 207.284Z" fill="#5275A0"/>
<path d="M110.469 348.793C103.071 310.181 99.1772 304.229 102.438 294.547C106.592 282.206 104.255 269.816 108.165 257.394C112.075 244.988 114.736 231.642 111.588 219.009C110.599 215.019 108.571 210.673 103.769 210.495C101.838 210.43 99.9722 211.208 98.512 212.457C94.813 215.603 93.8882 220.322 93.0446 224.83L90.2216 239.896C89.2969 244.794 82.2233 245.086 81.1038 240.22C81.0876 240.172 81.0876 240.139 81.0714 240.091C80.1628 236.02 80.6333 231.771 81.185 227.62C82.4017 218.603 84.0404 209.554 83.2941 200.489C82.3855 189.526 77.4535 178.239 66.762 173.682C62.9818 172.06 58.6987 171.704 54.7076 172.725C43.5619 175.579 40.674 186.477 42.3126 195.77C43.4645 202.321 46.5308 208.338 49.3051 214.371C56.0867 229.112 51.1059 242.637 52.0469 258.838C54.6427 303.58 110.469 348.793 110.469 348.793Z" fill="#7EE8D4"/>
<path d="M60.7266 184.434C66.2264 211.905 71.7912 239.572 82.4665 265.487C85.5977 273.076 87.1228 283.082 105.245 303.742" stroke="#00AD9F" stroke-miterlimit="10" stroke-linecap="round" stroke-linejoin="round"/>
<path d="M275.287 191.472C269.593 184.969 264.336 178.352 258.804 171.979C255.218 167.844 251.519 163.806 247.496 159.979C245.5 158.065 243.44 156.216 241.266 154.416C228.416 143.81 214.075 135.004 198.743 128.453C189.495 124.496 179.729 121.236 171.876 114.928C164.024 108.636 158.378 98.2891 160.99 88.5751C162.888 81.5693 168.843 76.1204 175.673 73.623C182.487 71.1418 190.047 71.3364 197.137 72.8608C216.93 77.1259 233.462 91.3482 244.705 108.165C244.9 108.457 245.111 108.765 245.306 109.073C253.547 121.642 259.307 135.621 264.32 149.859C265.926 154.432 267.451 159.038 268.96 163.627C271.231 170.487 278.207 184.677 275.287 191.472Z" fill="#5193F4"/>
<path d="M184.742 89.386C206.336 93.5051 221.618 107.792 237.631 122.842C253.644 137.891 265.261 157.562 270.696 178.855" stroke="#0B43A4" stroke-miterlimit="10" stroke-linecap="round" stroke-linejoin="round"/>
<path opacity="0.2" d="M258.804 171.979C258.625 174.217 258.69 176.455 259.112 178.725C253.709 177.493 249.962 169.109 247.496 159.979C245.078 151.108 243.878 141.507 243.505 137.08C242.775 127.739 243.375 118.268 245.305 109.073C253.547 121.642 259.307 135.621 264.32 149.859C262.6 154.968 261.124 160.141 259.907 165.363C259.388 167.584 258.982 169.774 258.804 171.979Z" fill="#5275A0"/>
<path d="M296.265 94.0564C294.431 102.149 289.548 109.138 285.233 116.241C282.961 119.971 280.836 123.815 278.857 127.707C272.513 140.161 267.678 153.378 264.482 166.984C263.428 171.444 262.844 175.823 263.687 180.347C253.044 177.915 248.794 147.67 248.08 138.686C246.798 122.501 249.556 105.911 256.224 91.0887C259.128 84.5857 262.892 78.1962 268.684 74.0284C274.46 69.8606 282.637 68.4011 288.753 72.0337C292.436 74.223 294.805 77.8556 295.956 81.9909C297.092 85.8506 297.141 90.1481 296.265 94.0564Z" fill="#52D2BC"/>
<path d="M259.631 171.428C253.012 154.805 257.035 119.631 267.646 97.5269C270.842 90.8617 275.401 84.6181 281.777 80.9044" stroke="#00AD9F" stroke-miterlimit="10" stroke-linecap="round" stroke-linejoin="round"/>
<path opacity="0.2" d="M296.265 94.0575C294.431 102.15 289.548 109.139 285.232 116.242C282.961 119.972 280.836 123.816 278.856 127.708C275.952 122.81 273.957 117.41 273.405 111.767C272.513 102.344 276.115 92.2574 283.772 86.7112C287.358 84.1327 291.56 82.657 295.956 81.9921C297.092 85.8517 297.141 90.1492 296.265 94.0575Z" fill="#5275A0"/>
<path d="M357.672 164.455C357.169 167.552 356.244 170.536 354.914 173.406C350.193 183.623 340.28 192.38 325.435 199.516C325.435 199.516 324.608 183.364 324.429 179.034C323.699 160.514 303.598 150.281 290.878 136.772C284.405 129.88 279.489 121.188 278.581 111.765C277.688 102.343 281.29 92.2563 288.948 86.7101C295.372 82.0721 303.776 81.0666 311.693 81.6666C324.445 82.6883 337.311 88.0237 345.244 97.981C345.585 98.354 345.877 98.7594 346.169 99.1486C351.02 105.781 353.519 113.857 355.352 121.901C358.532 135.831 359.959 150.329 357.672 164.455Z" fill="#00AD9F"/>
<path d="M294.431 96.6349C308.351 103.835 322.288 112.528 330.383 125.923C341.691 144.621 339.225 168.947 330.513 188.975" stroke="#00AD9F" stroke-miterlimit="10" stroke-linecap="round" stroke-linejoin="round"/>
<path d="M590.484 283.893C599.358 269.298 594.816 250.518 597.914 233.734C600.283 220.825 607.47 208.857 617.756 200.683C624.213 195.559 633.282 191.894 640.567 195.737C642.141 196.564 644.023 197.748 645.548 196.807C646.456 196.256 646.813 195.121 647.04 194.083C648.89 185.018 644.526 175.109 648.095 166.563C650.009 161.957 653.984 158.519 658.186 155.843C666.298 150.67 675.789 147.702 685.393 147.313C687.941 147.216 690.601 147.313 692.889 148.448C697.01 150.508 698.892 155.649 698.34 160.222C697.788 164.795 695.257 168.898 692.467 172.563C683.155 184.742 669.51 195.251 667.709 210.462C667.482 212.376 667.482 214.419 668.358 216.138C669.218 217.808 670.808 218.992 671.7 220.63C674.572 225.901 669.024 231.885 663.621 234.463C658.673 236.831 653.319 238.307 647.851 238.826C644.087 239.183 639.853 239.264 637.29 242.037C632.569 247.161 637.987 255.351 636.998 262.243C636.381 266.541 633.266 270.011 630.119 273.027C624.294 278.622 617.935 283.633 611.137 287.996C605.621 291.531 599.796 294.645 594.913 298.991C590.03 303.337 586.087 309.224 585.763 315.759" fill="#52D2BC"/>
<path d="M602.165 269.687C603.609 262.616 606.902 256.064 610.163 249.626C615.258 239.555 620.449 229.339 628.139 221.084C633.98 214.808 641.102 209.846 647.04 203.667C651.275 199.256 654.876 194.261 657.715 188.845C659.257 185.91 660.587 182.828 662.648 180.25C665.114 177.185 668.472 174.995 671.408 172.368C675.367 168.833 678.547 164.438 680.688 159.573" stroke="#00AD9F" stroke-miterlimit="10" stroke-linecap="round" stroke-linejoin="round"/>
<path d="M717.857 294.012C715.862 301.699 712.893 309.305 707.799 315.402C704.278 319.603 699.898 322.927 695.112 325.635C692.645 327.046 690.05 328.279 687.438 329.381C677.282 333.647 666.363 336.063 655.363 336.485C639.334 337.085 622.851 333.549 607.47 338.122C600.413 340.214 593.907 344.025 588.57 349.069C585.227 352.199 582.356 355.815 580.084 359.788L582.177 346.49C586.055 332.187 590.013 317.624 597.931 305.088C603.041 296.964 609.677 289.893 616.734 283.39C628.01 272.979 640.518 263.816 654.325 257.118C665.487 251.702 677.882 247.891 690.212 249.399C702.526 250.891 714.629 258.675 718.474 270.465C720.94 278.038 719.869 286.309 717.857 294.012Z" fill="#5193F4"/>
<path d="M592.658 336.371C604.436 318.954 622.072 305.559 642.027 298.91C654.454 294.758 667.612 293.185 680.202 289.552C692.791 285.92 705.365 279.757 712.747 268.924" stroke="#0B43A4" stroke-miterlimit="10" stroke-linecap="round" stroke-linejoin="round"/>
<path d="M600.413 464.112C601.111 446.225 610.358 429.716 621.602 415.769C630.963 404.142 642.271 393.503 656.24 388.201C660.62 386.546 665.422 385.427 669.965 386.546C674.508 387.665 678.628 391.541 678.71 396.228C678.774 400.169 676.13 403.623 673.339 406.412C664.157 415.607 652.297 421.494 641.168 428.208C622.056 439.754 603.885 455.161 596.309 476.162" fill="#52D2BC"/>
<path d="M607.487 448.463C619.168 422.418 649.409 399.131 669.348 396.228" stroke="#00AD9F" stroke-miterlimit="10" stroke-linecap="round" stroke-linejoin="round"/>
<path d="M593.112 478.335C592.95 475.335 602.733 467.502 604.94 465.507C617.156 454.431 631.66 446.29 646.992 441.49C653.189 439.544 659.792 438.133 665.99 439.625C672.204 441.117 677.898 446.209 678.498 452.89C679.083 459.377 674.735 465.734 669.17 468.864C663.605 472.01 657.115 472.48 650.918 472.124C641.346 471.572 631.936 469.188 622.332 469.253C612.711 469.334 599.213 470.307 593.112 478.335Z" fill="#00AD9F"/>
<path d="M603.074 469.237C622.721 458.599 652.427 451.674 674.004 454.285" stroke="#00AD9F" stroke-miterlimit="10" stroke-linecap="round" stroke-linejoin="round"/>
<path opacity="0.2" d="M357.672 164.454C357.169 167.552 356.244 170.536 354.914 173.406C348.018 158.795 341.951 139.723 340.491 116.306C340.101 109.965 341.87 103.446 345.244 97.9808C345.585 98.3538 345.877 98.7593 346.169 99.1485C351.02 105.781 353.518 113.857 355.352 121.901C358.531 135.831 359.959 150.329 357.672 164.454Z" fill="#5275A0"/>
<path d="M425.633 163.627C440.3 158.422 455.55 154.27 468.886 146.226C472.926 143.794 476.803 140.972 479.675 137.242C482.53 133.512 484.299 128.745 483.666 124.074C483.017 119.339 479.983 114.798 481.005 110.111C481.687 107.03 483.991 104.63 485.759 102.003C489.961 95.7916 491.21 87.6668 489.085 80.4665C486.781 72.7472 480.989 66.5523 477.696 59.206C475.003 53.1894 474.045 46.427 474.954 39.9077C462.64 40.0699 451.413 46.7999 439.31 49.0379C430.046 50.7569 420.425 49.8163 411.243 51.9245C394.516 55.768 380.823 70.493 378.227 87.456C370.472 86.1262 362.117 88.9155 356.714 94.6564C350.987 100.754 347.759 109.43 348.278 117.782C352.058 178.482 386.826 210.138 386.826 210.138C386.826 210.138 420.036 165.622 425.633 163.627Z" fill="#7EE8D4"/>
<path d="M392.813 163.206C391.288 148.237 396.528 133.431 402.531 119.631C408.387 106.187 415.137 93.0023 424.189 81.4558C433.242 69.9093 444.745 60.0169 458.324 54.4382" stroke="#00AD9F" stroke-miterlimit="10" stroke-linecap="round" stroke-linejoin="round"/>
<path d="M405.873 63.6333C404.331 76.9799 405.418 93.0672 408.89 106.041" stroke="#00AD9F" stroke-miterlimit="10" stroke-linecap="round" stroke-linejoin="round"/>
<path d="M411.389 101.257C426.639 91.4778 450.099 85.5424 468.188 86.5803" stroke="#00AD9F" stroke-miterlimit="10" stroke-linecap="round" stroke-linejoin="round"/>
<path d="M374.09 103.754C392.456 111.49 393.202 138.475 393.705 146.145" stroke="#00AD9F" stroke-miterlimit="10" stroke-linecap="round" stroke-linejoin="round"/>
<path d="M398.702 128.988C412.752 118.917 433.048 115.885 447.99 119.647" stroke="#00AD9F" stroke-miterlimit="10" stroke-linecap="round" stroke-linejoin="round"/>
<path d="M437.039 56.6924C432.821 61.898 431.766 68.0929 432.188 72.3904" stroke="#00AD9F" stroke-miterlimit="10" stroke-linecap="round" stroke-linejoin="round"/>
<path d="M436.179 68.5795C442.653 65.2712 451.316 64.509 460.58 66.8281" stroke="#00AD9F" stroke-miterlimit="10" stroke-linecap="round" stroke-linejoin="round"/>
<path d="M74.9391 97.9485C76.6588 97.8512 88.4373 89.1426 92.9638 86.2073C94.2455 85.3803 95.5272 84.5208 96.4195 83.2883C97.3118 82.0558 97.7336 80.3692 97.0847 78.9908C96.2735 77.288 94.9431 75.5852 91.5848 75.5852C85.728 75.6014 83.6838 77.5312 80.8284 80.4665C71.4023 90.2129 74.9391 97.9485 74.9391 97.9485Z" fill="#4A49CA"/>
<path d="M127.716 133.091C132.842 135.394 138.31 137.68 143.891 136.967C146.048 136.691 148.417 135.702 149.131 133.658C149.748 131.907 148.904 129.88 147.509 128.647C146.113 127.415 144.28 126.815 142.463 126.377C135.649 124.707 126.061 125.631 119.312 127.545C119.295 127.545 124.649 131.712 127.716 133.091Z" fill="#4A49CA"/>
<path d="M161.461 57.4222C159.173 55.9789 156.642 54.049 156.658 51.3408C156.658 48.6325 159.481 46.573 162.191 46.5568C164.9 46.5406 167.415 48.0163 169.459 49.8164C178.074 57.3897 177.003 66.0172 177.003 66.0172C177.003 66.0172 164.008 59.0277 161.461 57.4222Z" fill="#4A49CA"/>
<path d="M168.259 34.3453C166.247 33.4858 164.186 32.4479 163.002 30.5992C162.434 29.7073 162.11 28.5721 162.451 27.5666C163.035 25.8963 164.089 24.3881 168.324 25.1503C181.708 27.5828 184.629 36.7455 184.629 36.7455C184.629 36.7455 171.812 35.8697 168.259 34.3453Z" fill="#4A49CA"/>
<path d="M207.472 54.6166C212.842 54.1463 218.39 51.4867 221.765 47.2865C223.047 45.6972 224.215 43.962 224.637 41.9673C225.058 39.9726 224.604 37.7022 223.063 36.3724C221.181 34.7507 218.196 35.0102 216.135 36.3724C214.059 37.7347 212.728 39.9726 211.657 42.1943C210.23 45.1783 207.472 54.6166 207.472 54.6166Z" fill="#4A49CA"/>
<path d="M111.605 250.291C98.6096 238.842 85.5981 227.376 72.6028 215.927C65.6752 209.83 58.6016 203.537 54.2212 195.413C44.7951 177.947 50.2301 155.259 62.9658 140.032C75.7015 124.804 94.359 115.82 113.114 109.284C131.852 102.749 151.37 98.1593 169.232 89.4994C180.443 84.0667 191.702 75.9906 194.785 63.9252C196.634 56.6762 195.077 48.6163 190.664 42.5836C186.251 36.5346 179.047 32.6101 171.568 32.1722" stroke="#0B43A4" stroke-miterlimit="10" stroke-linecap="round" stroke-linejoin="round"/>
<path d="M216.557 42.162C213.004 53.0598 199.165 59.6926 192.854 69.1471" stroke="#0B43A4" stroke-miterlimit="10" stroke-linecap="round" stroke-linejoin="round"/>
<path d="M166.879 54.6976C169.605 57.568 172.866 59.9519 175.251 63.1143C180.28 69.8119 180.686 80.6935 173.255 87.4398" stroke="#0B43A4" stroke-miterlimit="10" stroke-linecap="round" stroke-linejoin="round"/>
<path d="M96.8735 115.739C108.344 124.577 123.416 130.464 137.887 131.015" stroke="#0B43A4" stroke-miterlimit="10" stroke-linecap="round" stroke-linejoin="round"/>
<path d="M70.6233 131.826C65.3344 116.257 71.0938 97.6079 84.2352 87.7317" stroke="#0B43A4" stroke-miterlimit="10" stroke-linecap="round" stroke-linejoin="round"/>
<path d="M489.864 66.0496C489.247 64.1198 489.28 61.7521 490.691 60.3088C491.827 59.1736 493.709 58.6547 495.185 59.3033C506.591 64.3144 505.358 82.1045 505.358 82.1045C505.358 82.1045 494.553 80.5476 489.864 66.0496Z" fill="#4A49CA"/>
<path d="M489.588 99.3756C482.206 112.706 508.424 111.684 517.882 103.835C517.882 103.835 495.948 87.8939 489.588 99.3756Z" fill="#4A49CA"/>
<path d="M522.75 67.0713C520.965 64.6387 520.332 61.0061 522.279 58.6871C523.723 56.9681 526.238 56.4329 528.444 56.8545C530.651 57.2762 533.96 59.3195 535.372 61.071C544.003 71.8066 539.947 82.2991 539.947 82.2991C539.947 82.2991 525.654 71.0607 522.75 67.0713Z" fill="#4A49CA"/>
<path d="M626.874 100.073C626.241 97.9971 626.387 95.4672 627.993 94.0077C629.015 93.0833 630.459 92.759 631.822 92.8563C633.185 92.9536 634.499 93.4563 635.748 94.0239C638.425 95.2402 640.502 97.3809 641.784 100.024C645.028 106.706 642.822 114.96 642.822 114.96C642.822 114.96 628.464 105.246 626.874 100.073Z" fill="#4A49CA"/>
<path d="M594.118 124.528C589.478 120.458 582.389 119.258 576.727 121.739C575.283 122.371 573.92 123.263 573.011 124.528C570.935 127.399 571.665 131.583 573.822 134.388C575.964 137.194 579.225 138.896 582.454 140.356C588.294 142.999 597.347 143.535 603.561 145.124C603.545 145.108 603.528 132.783 594.118 124.528Z" fill="#4A49CA"/>
<path d="M498.041 68.92C501.902 81.5369 512.82 91.0725 524.972 96.2133C537.124 101.37 550.508 102.733 563.698 103.576C576.872 104.435 590.208 104.857 602.944 108.311C615.355 111.684 627.734 118.69 633.055 130.399C639.545 144.654 633.802 161.681 624.684 174.428C615.582 187.158 603.317 197.424 594.507 210.365C590.468 216.3 587.077 223.274 587.904 230.409C588.991 239.928 597.022 246.934 604.469 252.967" stroke="#0B43A4" stroke-miterlimit="10" stroke-linecap="round" stroke-linejoin="round"/>
<path d="M528.412 64.282C537.14 73.9311 544.116 89.0292 545.82 101.938" stroke="#0B43A4" stroke-miterlimit="10" stroke-linecap="round" stroke-linejoin="round"/>
<path d="M499.046 101.581C504.043 102.911 509.105 104.241 514.264 104.257C519.424 104.273 525.41 101.403 529.125 97.8187" stroke="#0B43A4" stroke-miterlimit="10" stroke-linecap="round" stroke-linejoin="round"/>
<path d="M635.424 100.851C640.096 105.36 642.952 111.733 643.195 118.22C643.438 124.723 639.837 132.588 635.505 137.437" stroke="#0B43A4" stroke-miterlimit="10" stroke-linecap="round" stroke-linejoin="round"/>
<path d="M586.477 130.334C595.822 138.929 603.95 145.886 614.333 153.184C619.07 156.524 628.48 160.789 632.666 159.687" stroke="#0B43A4" stroke-miterlimit="10" stroke-linecap="round" stroke-linejoin="round"/>
<path opacity="0.2" d="M695.11 325.635C692.644 327.046 690.048 328.279 687.436 329.381C677.28 333.647 666.361 336.063 655.362 336.485C639.332 337.085 622.849 333.549 607.469 338.122C600.412 340.214 593.906 344.025 588.568 349.069C588.033 349.328 587.497 349.62 586.962 349.928C585.68 339.079 612.742 324.938 620.967 321.257C635.812 314.608 652.36 311.656 668.584 312.954C675.69 313.521 682.975 314.916 688.831 318.954C691.346 320.689 693.553 323.008 695.11 325.635Z" fill="#5275A0"/>
<path d="M668.569 319.441C675.676 320.008 682.96 321.403 688.817 325.441C694.674 329.479 698.811 336.695 697.448 343.685C695.858 351.826 687.438 357.129 679.196 358.118C670.954 359.124 662.729 356.853 654.601 355.183C636.609 351.485 618.048 350.626 599.797 352.685C595.238 353.188 590.922 354.096 586.947 356.431C585.666 345.582 612.743 331.441 620.969 327.76C635.814 321.095 652.362 318.143 668.569 319.441Z" fill="#52D2BC"/>
<path d="M593.988 349.588C607.422 337.782 641.93 329.771 666.33 332.349C673.68 333.128 681.094 335.317 686.74 340.085" stroke="#00AD9F" stroke-miterlimit="10" stroke-linecap="round" stroke-linejoin="round"/>
<path d="M568.89 216.933L700.125 216.657C715.521 216.624 728.03 229.079 728.062 244.469C728.095 259.859 715.635 272.362 700.238 272.395L610.472 272.573" stroke="#0B43A4" stroke-miterlimit="10" stroke-linecap="round" stroke-linejoin="round" stroke-dasharray="4 4"/>
<path d="M171.828 313.245L80.0494 313.44C71.3535 313.456 64.3285 320.511 64.3448 329.203C64.361 337.895 71.4184 344.917 80.1143 344.901L106.867 344.852" stroke="#0B43A4" stroke-miterlimit="10" stroke-linecap="round" stroke-linejoin="round" stroke-dasharray="4 4"/>
<path d="M25.3423 384.276C-6.0995 384.341 -6.74846 431.224 33.2433 431.127C73.2513 431.046 598.044 429.959 622.786 429.911C647.527 429.862 650.139 391.266 619.557 391.331C558.669 391.46 556.657 362.432 590.451 362.367" stroke="#C8DBFB" stroke-miterlimit="10" stroke-linecap="round" stroke-linejoin="round" stroke-dasharray="4 4"/>
<path d="M32.6919 382.979C33.4057 387.211 30.5666 391.217 26.3321 391.947C22.0977 392.66 18.0904 389.822 17.3603 385.59C16.6465 381.357 19.4857 377.351 23.7201 376.622C27.9545 375.908 31.978 378.746 32.6919 382.979Z" fill="#5193F4"/>
<path d="M605.54 362.578C606.253 366.81 603.414 370.816 599.18 371.546C594.945 372.259 590.938 369.421 590.208 365.189C589.494 360.956 592.333 356.95 596.568 356.221C600.802 355.507 604.809 358.361 605.54 362.578Z" fill="#0B43A4"/>
<path opacity="0.2" d="M613.992 498.12L125.833 499.125C119.327 499.141 114.022 493.871 114.022 487.368L113.357 164.114C113.341 157.611 118.613 152.308 125.119 152.308L613.279 151.302C619.784 151.286 625.09 156.557 625.09 163.06L625.755 486.314C625.771 492.817 620.514 498.103 613.992 498.12Z" fill="#5275A0"/>
<path d="M604.437 491.939L116.277 492.945C109.772 492.961 104.466 487.69 104.466 481.187L103.801 157.933C103.785 151.43 109.058 146.127 115.564 146.127L603.723 145.122C610.229 145.106 615.534 150.376 615.534 156.879L616.199 480.133C616.215 486.636 610.943 491.923 604.437 491.939Z" fill="white"/>
<path d="M602.928 145.108L116.862 146.113C109.772 146.129 104.045 151.886 104.045 158.973L104.061 170.13L615.81 169.076L615.794 157.919C615.778 150.832 610.018 145.091 602.928 145.108Z" fill="#0056EC"/>
<path d="M117.446 492.946L190.891 492.8L190.226 169.952L103.947 170.13L104.58 480.167C104.596 487.238 110.356 492.963 117.446 492.946Z" fill="#C8DBFB"/>
<path d="M603.869 148.351C608.574 148.351 612.403 152.178 612.419 156.881L613.084 480.135C613.084 482.422 612.208 484.562 610.586 486.184C608.98 487.806 606.838 488.698 604.551 488.698L116.375 489.703C111.67 489.703 107.841 485.876 107.825 481.173L107.16 157.919C107.16 155.632 108.036 153.492 109.658 151.87C111.264 150.248 113.406 149.356 115.694 149.356L603.837 148.351H603.869ZM603.869 145.108C603.869 145.108 603.853 145.108 603.837 145.108L115.677 146.113C109.172 146.129 103.899 151.416 103.915 157.919L104.58 481.173C104.596 487.676 109.869 492.93 116.375 492.93C116.375 492.93 116.391 492.93 116.407 492.93L604.567 491.925C611.073 491.909 616.345 486.622 616.329 480.119L615.664 156.865C615.648 150.362 610.375 145.108 603.869 145.108Z" fill="#0056EC"/>
<path d="M178.496 468.264L121.891 468.378C119.392 468.378 117.364 466.367 117.364 463.869V463.302C117.364 460.804 119.376 458.777 121.874 458.777L178.479 458.664C180.978 458.664 183.006 460.674 183.006 463.172V463.74C183.022 466.237 180.994 468.264 178.496 468.264Z" fill="white"/>
<path d="M171.698 249.237L123.513 249.334C118.938 249.351 115.223 245.637 115.207 241.064L115.109 192.899C115.093 188.326 118.808 184.612 123.384 184.596L171.568 184.499C176.144 184.482 179.859 188.196 179.875 192.769L179.972 240.934C179.972 245.523 176.273 249.237 171.698 249.237Z" fill="white"/>
<path d="M377.984 393.52L210.1 393.86C206.839 393.86 204.194 391.233 204.178 387.974V387.244C204.178 383.984 206.806 381.341 210.067 381.325L377.952 380.984C381.213 380.984 383.857 383.611 383.874 386.871V387.601C383.874 390.877 381.245 393.52 377.984 393.52Z" fill="#C8DBFB"/>
<path d="M368.282 202.321L235.62 202.597C232.359 202.597 229.714 199.97 229.698 196.71V195.98C229.698 192.721 232.326 190.077 235.587 190.061L368.25 189.785C371.511 189.785 374.155 192.413 374.172 195.672V196.402C374.172 199.678 371.543 202.321 368.282 202.321Z" fill="#C8DBFB"/>
<path d="M578.008 336.452L401.119 336.825C397.858 336.825 395.214 334.198 395.198 330.938V330.209C395.198 326.949 397.826 324.306 401.087 324.289L577.976 323.933C581.237 323.933 583.881 326.56 583.897 329.819V330.549C583.897 333.793 581.269 336.436 578.008 336.452Z" fill="#C8DBFB"/>
<path d="M378.033 419.451L210.149 419.791C206.888 419.791 204.243 417.164 204.227 413.905V413.175C204.227 409.915 206.855 407.272 210.116 407.256L378.001 406.915C381.262 406.915 383.906 409.542 383.922 412.802V413.532C383.939 416.791 381.294 419.435 378.033 419.451Z" fill="#C8DBFB"/>
<path d="M378.081 445.366L210.197 445.706C206.936 445.706 204.292 443.079 204.275 439.819V439.09C204.275 435.83 206.904 433.187 210.165 433.17L378.049 432.83C381.31 432.83 383.954 435.457 383.971 438.717V439.446C383.987 442.706 381.342 445.366 378.081 445.366Z" fill="#C8DBFB"/>
<path d="M574.406 462.264L405.208 462.621C399.821 462.637 395.441 458.274 395.441 452.89L395.295 380.254C395.279 374.87 399.643 370.492 405.029 370.492L574.228 370.135C579.614 370.119 583.994 374.481 583.994 379.865L584.14 452.501C584.157 457.885 579.793 462.264 574.406 462.264Z" fill="#C8DBFB"/>
<path d="M132.112 157.854C132.112 160.141 130.262 161.989 127.991 161.989C125.72 161.989 123.854 160.141 123.854 157.87C123.854 155.584 125.704 153.735 127.975 153.735C130.246 153.735 132.112 155.584 132.112 157.854Z" fill="#C8DBFB"/>
<path d="M145.496 161.973C147.781 161.973 149.634 160.122 149.634 157.838C149.634 155.554 147.781 153.703 145.496 153.703C143.212 153.703 141.359 155.554 141.359 157.838C141.359 160.122 143.212 161.973 145.496 161.973Z" fill="#C8DBFB"/>
<path d="M167.139 157.789C167.139 160.076 165.29 161.925 163.018 161.925C160.747 161.925 158.881 160.076 158.881 157.805C158.881 155.519 160.731 153.67 163.002 153.67C165.274 153.654 167.123 155.503 167.139 157.789Z" fill="#C8DBFB"/>
<path d="M223.205 197.593C223.864 191.025 219.071 185.168 212.5 184.509C205.93 183.851 200.069 188.642 199.411 195.21C198.752 201.778 203.545 207.636 210.116 208.294C216.687 208.952 222.547 204.161 223.205 197.593Z" fill="#C8DBFB"/>
<path d="M175.056 259.34L122.086 259.454C120.853 259.454 119.863 258.465 119.847 257.232V256.956C119.847 255.724 120.836 254.735 122.069 254.718L175.04 254.605C176.273 254.605 177.263 255.594 177.279 256.827V257.102C177.279 258.335 176.289 259.34 175.056 259.34Z" fill="white"/>
<path d="M175.073 269.46L122.102 269.573C120.869 269.573 119.879 268.584 119.863 267.351V267.076C119.863 265.843 120.852 264.854 122.085 264.838L175.056 264.724C176.289 264.724 177.279 265.713 177.295 266.946V267.222C177.295 268.454 176.306 269.443 175.073 269.46Z" fill="white"/>
<path d="M235.717 290.834L220.743 290.98L220.856 353.707L207.926 353.74C203.367 353.756 199.668 350.058 199.652 345.501L199.408 229.501C199.392 224.895 203.123 221.149 207.731 221.149L235.555 221.084L235.717 290.834Z" fill="#C8DBFB"/>
<path d="M332.882 220.89V222.511C337.36 222.511 341.01 226.144 341.01 230.62L341.237 343.717C341.237 345.89 340.393 347.934 338.868 349.474C337.343 351.015 335.299 351.858 333.125 351.875L209.386 352.134C204.908 352.134 201.258 348.501 201.258 344.025L201.031 230.928C201.031 228.755 201.874 226.712 203.399 225.171C204.924 223.63 206.969 222.787 209.143 222.771L332.866 222.511L332.882 220.89ZM332.882 220.89H332.866L209.143 221.149C203.756 221.165 199.392 225.528 199.408 230.912L199.635 344.009C199.652 349.393 204.016 353.739 209.386 353.739H209.402L333.125 353.48C338.512 353.464 342.876 349.101 342.86 343.717L342.632 230.62C342.632 225.236 338.268 220.873 332.882 220.89Z" fill="#C8DBFB"/>
<path d="M539.476 313.959L374.448 276.676C369.191 275.492 365.898 270.271 367.082 265.016L385.642 182.909C386.826 177.655 392.05 174.363 397.307 175.547L562.336 212.83C567.592 214.014 570.886 219.236 569.701 224.49L551.141 306.597C549.957 311.851 544.733 315.159 539.476 313.959Z" fill="#C8DBFB"/>
<path d="M220.094 537.267L197.007 537.316L191.345 507.915L225.626 507.85L220.094 537.267Z" fill="#0056EC"/>
<path d="M197.738 507.898C197.738 510.299 197.283 514.32 198.889 514.385C200.496 514.45 199.83 510.558 201.647 510.672C202.816 510.736 201.112 523.451 205.509 523.759C208.526 523.97 207.975 517.531 208.283 513.493C208.494 510.769 211.982 511.304 212.015 513.104C212.047 515.131 211.917 516.477 212.015 518.78C212.177 522.624 218.082 521.602 217.871 516.477C217.66 511.353 217.855 507.882 217.855 507.882L197.738 507.898Z" fill="#C8DBFB"/>
<path d="M192.221 525.656C191.751 525.656 191.296 525.607 190.858 525.51C189.155 525.137 187.971 524.245 187.305 522.85C184.953 517.855 191.15 508.514 191.394 508.093L191.718 509.779C191.67 509.877 186.267 517.904 188.392 522.396C188.895 523.466 189.788 524.131 191.134 524.423C191.507 524.504 191.897 524.537 192.286 524.537C200.609 524.521 214.821 509.033 214.983 508.855C215.567 508.158 216.654 508.823 216.265 509.406C215.6 510.152 201.161 525.64 192.221 525.656Z" fill="#0C2340"/>
<path opacity="0.2" d="M434.865 123.523C402.044 122.274 356.861 146.535 372.89 205.857C372.549 210.868 375.551 214.452 378.747 213.479C381.943 212.506 379.12 202.986 379.12 202.986C384.588 158.876 394.809 151.254 412.152 151.416L452.858 151.335C462.916 152.811 481.201 159.849 483.942 195.153L494.082 197.018C494.877 171.509 488.712 125.582 434.865 123.523Z" fill="#5275A0"/>
<path d="M434.865 118.35C402.044 117.101 356.861 141.361 372.89 200.683L379.12 197.813C384.588 153.703 394.809 146.081 412.152 146.243L452.858 146.162C462.916 147.637 481.687 156.573 484.429 191.877L494.066 191.861C494.877 166.336 488.712 120.409 434.865 118.35Z" fill="#EF832B"/>
<path d="M428.149 119.323L423.282 130.026C423.282 130.026 423.866 136.058 429.788 135.929C435.709 135.799 436.504 133.075 436.504 133.075L437.283 120.782L428.149 119.323Z" fill="#FFB9A3"/>
<path d="M453.215 110.387C447.666 120.198 445.2 123.263 437.932 124.739C428.522 126.653 417.976 120.312 422.876 104.679C426.867 91.932 432.935 93.8943 438.856 94.3808C444.778 94.8511 459.217 99.7811 453.215 110.387Z" fill="#FFB9A3"/>
<path d="M431.118 102.635C429.641 101.873 427.743 102.522 426.591 103.722C425.407 104.97 424.839 106.819 425.342 108.457C423.071 108.49 421.075 110.711 421.286 112.982C419.729 109.365 420.572 105.587 420.264 101.873C419.956 98.1593 420.361 94.1375 422.762 91.2995C423.752 90.1319 425.018 89.24 426.364 88.5264C431.475 85.802 437.916 85.7209 443.107 88.2832C444.178 88.8183 446.871 90.5049 450.635 89.5968C457.806 87.8615 461.992 92.7104 457.692 97.2512C459.071 97.7539 460.596 98.3702 461.213 99.6999C461.375 100.041 461.456 100.462 461.245 100.77C461.099 100.981 460.84 101.095 460.58 101.176C459.38 101.581 458.066 101.678 456.8 101.468C457.287 101.873 459.948 102.035 460.742 103.592C462.884 107.711 454.415 105.635 453.117 105.214C454.594 105.489 458.455 108.571 457.222 110.695C456.979 111.117 451.754 114.149 446.271 107.776C444.989 106.3 443.399 104.922 441.517 104.419C440.041 104.03 438.483 104.565 437.039 105.116C435.985 105.506 433.308 107.144 432.545 106.171C431.75 105.133 432.837 103.495 431.118 102.635Z" fill="#0C2340"/>
<path d="M485.484 191.861C484.023 196.872 482.563 197.359 484.315 198.154C486.084 198.948 487.512 196.143 487.512 196.143L495.656 197.764C495.656 197.764 493.823 192.478 492.541 191.845C491.259 191.213 485.484 191.861 485.484 191.861Z" fill="#FFB9A3"/>
<path d="M379.12 197.813C380.191 200.456 380.483 200.473 381.959 203.651C384.798 209.716 378.163 219.301 374.042 208.841C372.906 205.97 372.89 200.7 372.89 200.7L379.12 197.813Z" fill="#FFB9A3"/>
<path d="M442.718 89.1426C448.282 89.4507 455.129 85.5262 459.493 90.5535C459.899 91.0237 460.71 90.4075 460.353 89.8886C456.183 83.9045 448.444 88.3642 442.734 88.202C442.117 88.202 442.133 89.1101 442.718 89.1426Z" fill="#0C2340"/>
<path d="M444.957 86.0776C441.16 86.7425 437.494 84.9424 433.681 85.5424C430.582 86.029 427.824 87.6182 425.488 89.6454C424.888 90.1643 425.667 91.186 426.348 90.7481C429.625 88.5912 432.773 86.7263 436.861 87.0344C439.83 87.2452 442.345 88.1372 445.297 87.2452C446.044 87.0182 445.719 85.9479 444.957 86.0776Z" fill="#0C2340"/>
<path d="M423.314 91.267C420.637 92.9374 419.096 95.1591 418.771 98.3538C418.544 100.657 418.479 105.927 420.799 107.225C421.351 107.533 421.935 106.803 421.481 106.333C419.988 104.824 419.858 100.754 419.972 98.8404C420.134 95.9051 421.367 93.6671 423.703 91.9157C424.076 91.64 423.736 91.0075 423.314 91.267Z" fill="#0C2340"/>
<path d="M464.474 100.397C463.095 98.0133 459.574 95.9051 456.865 97.4133C456.443 97.6565 456.638 98.3052 457.108 98.3052C458.293 98.3214 459.379 98.1754 460.531 98.5322C461.845 98.9376 462.949 99.6999 463.727 100.819C464.052 101.273 464.75 100.884 464.474 100.397Z" fill="#0C2340"/>
<path d="M283.935 347.788C301.148 354.112 316.09 373.832 312.651 388.184C308.773 404.385 297.595 411.375 297.595 411.375L294.074 404.872C294.074 404.872 303.014 390.909 302.235 384.309C300.986 373.751 287.65 366.681 287.65 366.681L283.935 347.788Z" fill="#0B43A4"/>
<path d="M241.574 530.586C241.574 530.586 231.013 534.851 228.368 537.267L249.297 537.219L249.281 530.57L241.574 530.586Z" fill="#0C2340"/>
<path d="M287.828 530.181C287.828 530.181 290.83 533.651 291.381 537.138L277.104 537.17C277.348 534.77 278.37 532.451 279.765 530.197L287.828 530.181Z" fill="#0C2340"/>
<path d="M288.704 530.489L278.954 530.505C279.149 519.023 276.78 479.892 274.492 450.636C273.146 433.479 271.815 419.694 271.037 416.905L276.261 415.753L295.973 411.375C299.347 426.781 291.56 497.52 288.704 530.489Z" fill="#047F76"/>
<path d="M252.866 416.288C245.257 428.257 243.294 514.791 240.114 530.829L249.362 531.348C249.362 531.348 259.988 476.794 282.604 415.461L252.866 416.288Z" fill="#009790"/>
<path opacity="0.2" d="M286.498 415.461C282.036 427.576 278.029 439.43 274.492 450.636C273.146 433.478 271.815 419.694 271.037 416.905L276.261 415.753L286.498 415.461Z" fill="#5275A0"/>
<path d="M252.866 416.288C245.257 428.257 243.294 514.791 240.114 530.829L249.362 531.348C249.362 531.348 259.988 476.794 282.604 415.461L252.866 416.288Z" fill="#009790"/>
<path d="M258.674 319.684C258.674 319.684 252.753 342.225 267.549 342.209L266.673 347.966L277.9 349.199L275.466 341.171C275.466 341.171 277.689 326.998 277.835 324.435C278.11 319.651 264.71 311.235 258.674 319.684Z" fill="#FFB9A3"/>
<path d="M222.104 294.414L217.74 294.423L217.777 312.829L222.141 312.82L222.104 294.414Z" fill="#0C2340"/>
<path d="M232.424 294.385L207.407 294.434C205.655 294.434 204.227 293.023 204.227 291.271V290.623C204.227 288.871 205.639 287.444 207.391 287.444L232.408 287.396C234.16 287.396 235.588 288.806 235.588 290.558V291.207C235.604 292.958 234.176 294.385 232.424 294.385Z" fill="#0056EC"/>
<path d="M216.573 317.624C216.46 313.456 213.004 314.543 214.902 307.732C216.07 303.515 224.783 308.413 223.696 311.332C222.609 314.251 221.359 318.873 221.359 318.873L216.573 317.624Z" fill="#FFB9A3"/>
<path d="M267.646 346.653C245.533 348.112 244.073 355.572 234.176 354.404C219.526 352.685 222.09 325.489 223.907 315.743L215.162 315.759C215.162 315.759 199.392 377.692 249.2 366.243C247.285 377.092 259.68 394.817 247.658 416.321C266.559 421.462 284.211 422.71 299.315 416.224C296.671 412.656 304.734 376.67 288.948 350.772C285.866 345.696 269.269 346.539 267.646 346.653Z" fill="#0056EC"/>
<path d="M267.646 346.653C245.533 348.112 244.073 355.572 234.176 354.404C219.526 352.685 222.09 325.489 223.907 315.743L215.162 315.759C215.162 315.759 199.392 377.692 249.2 366.243C247.285 377.092 259.68 394.817 247.658 416.321C266.559 421.462 284.211 422.71 299.315 416.224C296.671 412.656 304.734 376.67 288.948 350.772C285.866 345.696 269.269 346.539 267.646 346.653Z" fill="#0056EC"/>
<path d="M264.596 324.014C266.04 324.387 267.711 324.662 268.49 325.879C268.993 326.673 268.96 327.662 268.912 328.587C269.171 327.614 270.258 326.916 271.28 327.046C272.319 327.16 273.195 328.084 273.211 329.09C273.227 329.56 273.065 330.014 272.887 330.452C272.449 331.554 271.897 332.592 271.248 333.582C273.049 334.247 274.574 339.533 275.466 341.171C278.5 340.409 285.265 337.798 285.849 327.046C286.125 322.035 284.6 316.035 279.165 312.71C275.32 310.359 268.96 310.326 264.564 311.445C260.995 312.354 255.316 315.921 257.961 320.073C259.291 322.165 262.211 323.397 264.596 324.014Z" fill="#EF832B"/>
<path d="M283.546 317.17C285.606 316.489 288.218 316.846 289.451 318.565C290.408 319.911 290.327 321.662 290.635 323.268C290.782 324.046 291.057 324.824 291.658 325.36C292.371 325.992 293.41 326.154 294.383 326.203C296.768 326.333 299.169 326.025 301.522 326.43C303.874 326.835 306.275 328.149 306.94 330.338C307.314 331.555 307.103 332.884 307.557 334.068C308.222 335.852 310.12 336.874 311.775 337.912C315.296 340.117 318.297 343.101 320.455 346.555C321.834 348.745 322.889 351.177 323.051 353.723C323.213 356.269 325.063 359.642 324.56 362.14C324.024 364.848 321.363 368.513 316.107 370.2C307.022 373.119 304.134 374.384 295.422 369.21C294.367 368.594 292.323 366.47 291.366 365.708C290.619 365.108 290.149 364.248 289.889 363.356C289.159 360.859 290.003 358.167 291.301 355.896C292.599 353.626 294.367 351.615 295.697 349.361C296.492 347.999 297.141 346.49 297.076 344.934C297.044 344.35 296.898 343.75 296.476 343.328C296.103 342.971 295.584 342.793 295.065 342.696C293.15 342.323 291.041 342.712 289.321 341.852C287.634 341.025 286.709 338.982 287.228 337.23C287.569 336.063 288.461 335.074 288.705 333.89C289.062 332.171 287.991 330.419 286.498 329.414C285.006 328.408 283.173 328.019 281.372 327.727C280.479 327.581 279.555 327.435 278.841 326.916C277.948 326.284 277.543 325.165 277.559 324.111C277.624 320.738 280.366 318.224 283.546 317.17Z" fill="#EF832B"/>
<path d="M281.906 326.235C292.841 328.603 279.035 338.966 284.827 343.928C286.482 345.339 288.396 344.901 290.327 345.161C297.757 346.182 293.685 351.226 293.182 355.183C293.101 355.783 294.091 355.896 294.22 355.329C294.853 352.604 297.352 349.264 296.07 346.361C294.934 343.798 292.111 344.107 289.791 344.025C286.887 343.944 283.691 344.025 284.778 338.268C285.021 336.987 286.044 335.69 286.546 334.474C287.114 333.079 287.504 331.701 287.195 330.176C286.66 327.598 284.518 326.089 282.052 325.684C281.696 325.603 281.533 326.154 281.906 326.235Z" fill="#EF832B"/>
<path d="M259.372 312.84C267.808 308.559 276.212 309.418 283.335 315.694C283.821 316.116 284.47 315.467 284.049 314.981C277.802 307.943 266.689 306.71 259.145 312.435C258.902 312.629 259.096 312.986 259.372 312.84Z" fill="#EF832B"/>
<path d="M542.738 339.29L539.087 346.653L548.011 350.302L548.968 341.836L542.738 339.29Z" fill="#FFB9A3"/>
<path d="M548.124 315.37C527.86 324.192 536.167 345.566 548.497 343.052C554.5 341.836 557.534 322.506 557.534 322.506L548.124 315.37Z" fill="#FFB9A3"/>
<path d="M554.857 312.337C554.192 311.105 553.559 309.775 552.456 308.899C551.353 308.024 549.617 307.732 548.595 308.689C547.232 309.954 548.027 312.321 549.406 313.57C548.222 313.716 546.81 312.889 545.934 313.716C545.269 314.332 545.496 315.435 545.885 316.262C546.778 318.192 548.238 319.878 550.039 321.014C549.017 321.597 547.816 322.733 548.433 323.738C548.611 324.014 548.887 324.208 549.065 324.484C549.455 325.133 549.082 325.976 548.676 326.625C548.043 327.679 547.346 328.7 546.615 329.69C547.313 328.733 549.017 329.122 549.52 330.192C550.022 331.263 549.584 332.576 548.789 333.452C548.351 333.938 547.8 334.344 547.151 334.49C546.599 334.62 544.133 342.209 546.048 343.701C548.416 345.534 556.463 343.944 557.631 341.869C558.8 343.133 560.503 344.09 562.19 343.75C563.878 343.409 565.159 341.333 564.251 339.874C566.068 340.539 568.291 339.955 569.54 338.463C570.789 336.971 570.968 334.684 569.978 333.014C570.968 332.722 571.178 331.376 570.919 330.371C570.4 328.344 568.745 326.625 566.717 326.057C567.739 326.073 568.55 325.035 568.599 324.014C568.647 322.992 568.112 322.019 567.463 321.224C565.565 318.873 563.31 318.257 560.503 317.9C557.68 317.559 556.123 314.673 554.857 312.337Z" fill="#4A49CA"/>
<path d="M535.875 529.191C535.875 529.191 524.016 534.884 522.426 536.651C522.426 536.651 545.756 537.705 547.589 536.603C549.422 535.5 543.857 529.175 543.857 529.175L535.875 529.191Z" fill="#0C2340"/>
<path d="M579.988 522.753C579.988 522.753 569.572 530.781 568.372 532.84C568.372 532.84 592.967 529.191 592.967 527.586C592.967 525.98 587.775 521.083 587.775 521.083L579.988 522.753Z" fill="#0C2340"/>
<path d="M547.329 419.289C546.891 421.705 530.651 485.762 577.116 524.18L590.566 521.099C590.566 521.099 574.91 506.423 567.528 479.989C560.552 454.999 566.084 452.55 570.27 438.798C574.91 423.57 571.454 412.51 571.454 412.51L547.329 419.289Z" fill="#D8742A"/>
<path d="M525.135 419.094C517.769 436.69 505.131 496.644 532.679 530.392L546.437 530.359C546.437 530.359 535.599 518.488 534.382 490.935C533.166 463.383 540.174 451.285 545.123 442.203C550.071 433.106 554.646 417.667 554.646 417.667L525.135 419.094Z" fill="#EF832B"/>
<path d="M515.433 310.035C511.783 322.911 510.582 346.718 528.883 356.302L541.132 353.318C541.132 353.318 519.035 341.739 523.772 312.483L515.433 310.035Z" fill="#0B43A4"/>
<path d="M481.671 303.45L491.178 302.283C491.178 302.283 490.026 342.209 536.167 345.582C571.389 348.145 574.147 414.213 574.147 414.213C562.79 421.851 543.743 424.17 519.326 422.418C519.326 422.418 520.884 375.292 517.006 362.383C517.006 362.367 478.669 350.318 481.671 303.45Z" fill="#0056EC"/>
<path d="M470.039 296.202C468.432 298.066 475.149 300.434 481.671 303.451L490.026 302.429C490.026 302.429 490.124 300.758 490.026 299.023C489.929 297.288 489.053 296.299 488.063 297.791C487.074 299.283 482.855 299.785 480.86 298.423C478.848 297.045 471.645 294.337 470.039 296.202Z" fill="#FFB9A3"/>
<path d="M515.433 310.035C512.366 307.035 513.194 307.213 513.194 307.213L522.523 309.321C522.523 309.321 524.567 304.764 526.319 304.651C528.055 304.521 525.005 307.781 525.703 308.997C526.4 310.213 523.788 312.5 523.788 312.5L515.433 310.035Z" fill="#FFB9A3"/>
<path d="M560.097 316.732C562.012 317.219 563.958 317.413 565.548 318.727C567.122 320.024 567.836 322.246 566.7 324.046C566.165 324.889 567.43 325.554 567.998 324.808C569.442 322.911 569.053 320.316 567.593 318.516C565.905 316.456 562.774 315.597 560.211 315.873C559.756 315.921 559.594 316.602 560.097 316.732Z" fill="#4A49CA"/>
<path d="M568.533 334.036C569.799 334.782 570.853 335.982 570.318 337.555C569.815 338.998 568.355 339.858 567.171 340.685C566.603 341.09 567.089 341.95 567.722 341.625C569.474 340.701 571.324 339.404 571.6 337.263C571.843 335.398 570.594 333.987 569.036 333.144C568.468 332.852 567.982 333.695 568.533 334.036Z" fill="#4A49CA"/>
<path d="M547.232 343.701C551.531 346.377 557.615 345.939 561.168 342.177C561.606 341.707 561.005 340.831 560.454 341.252C556.56 344.139 552.147 345.063 547.588 343.101C547.183 342.923 546.842 343.458 547.232 343.701Z" fill="#4A49CA"/>
<path d="M569.101 319.554C571.567 321.905 569.101 325.116 567.511 327.127C567.154 327.565 567.706 328.165 568.144 327.76C569.555 326.446 570.967 324.987 571.161 322.976C571.307 321.451 570.675 320.008 569.328 319.262C569.15 319.165 568.939 319.408 569.101 319.554Z" fill="#4A49CA"/>
<path d="M294.658 23.3015L290.862 14.0091L327.576 0.0625L294.658 23.3015Z" fill="#0B43A4"/>
<path d="M296.508 17.5607L327.577 0.0625L305.95 22.0203L296.508 17.5607Z" fill="#5193F4"/>
<path d="M282.458 10.2143L327.577 0.0625L290.862 14.0091L282.458 10.2143Z" fill="#5193F4"/>
<path d="M296.508 17.5607L294.658 23.3015L300.272 19.3445L296.508 17.5607Z" fill="#0056EC"/>
<path d="M290.343 22.0528C280.755 20.4311 267.743 30.1288 273.34 40.2158C275.238 43.6538 285.07 42.1619 284.34 38.3671C283.983 36.5508 281.76 35.7724 279.927 35.9832C269.219 37.2157 268.781 46.1837 269.268 48.4703C271.718 60.2763 289.824 56.2869 295.908 54.6165" stroke="#C8DBFB" stroke-miterlimit="10" stroke-linecap="round" stroke-linejoin="round" stroke-dasharray="4 4"/>
</svg>
